<mxfile host="65bd71144e">
    <diagram id="xyLuTcKR7fZOYQC8sWXt" name="Page-1">
        <mxGraphModel dx="778" dy="657" grid="1" gridSize="10" guides="1" tooltips="1" connect="1" arrows="1" fold="1" page="1" pageScale="1" pageWidth="1000" pageHeight="700" math="0" shadow="0">
            <root>
                <mxCell id="0"/>
                <mxCell id="1" parent="0"/>
                <mxCell id="4" value="client" style="shape=umlActor;verticalLabelPosition=bottom;verticalAlign=top;html=1;outlineConnect=0;" vertex="1" parent="1">
                    <mxGeometry x="85" y="30" width="30" height="60" as="geometry"/>
                </mxCell>
                <mxCell id="14" style="edgeStyle=orthogonalEdgeStyle;html=1;exitX=1.27;exitY=0.065;exitDx=0;exitDy=0;fontSize=18;exitPerimeter=0;entryX=-0.082;entryY=0.064;entryDx=0;entryDy=0;entryPerimeter=0;" edge="1" parent="1" source="7" target="10">
                    <mxGeometry relative="1" as="geometry">
                        <mxPoint x="480" y="156" as="targetPoint"/>
                    </mxGeometry>
                </mxCell>
                <mxCell id="18" style="edgeStyle=none;html=1;entryX=0.044;entryY=0.145;entryDx=0;entryDy=0;fontSize=18;entryPerimeter=0;" edge="1" parent="1" target="10">
                    <mxGeometry relative="1" as="geometry">
                        <mxPoint x="110" y="200" as="sourcePoint"/>
                    </mxGeometry>
                </mxCell>
                <mxCell id="7" value="" style="rounded=0;whiteSpace=wrap;html=1;fillColor=#000000;" vertex="1" parent="1">
                    <mxGeometry x="88.75" y="120" width="22.5" height="550" as="geometry"/>
                </mxCell>
                <mxCell id="15" style="edgeStyle=none;html=1;exitX=-0.03;exitY=0.109;exitDx=0;exitDy=0;entryX=1.093;entryY=0.109;entryDx=0;entryDy=0;fontSize=18;entryPerimeter=0;exitPerimeter=0;dashed=1;" edge="1" parent="1" source="9" target="7">
                    <mxGeometry relative="1" as="geometry"/>
                </mxCell>
                <mxCell id="32" style="edgeStyle=orthogonalEdgeStyle;html=1;entryX=1;entryY=0.5;entryDx=0;entryDy=0;fontSize=18;dashed=1;" edge="1" parent="1" source="9" target="7">
                    <mxGeometry relative="1" as="geometry"/>
                </mxCell>
                <mxCell id="9" value="" style="rounded=0;whiteSpace=wrap;html=1;fillColor=#000000;" vertex="1" parent="1">
                    <mxGeometry x="890" y="120" width="22.5" height="550" as="geometry"/>
                </mxCell>
                <mxCell id="20" style="edgeStyle=none;html=1;fontSize=18;" edge="1" parent="1">
                    <mxGeometry relative="1" as="geometry">
                        <mxPoint x="530" y="260" as="targetPoint"/>
                        <mxPoint x="520" y="200" as="sourcePoint"/>
                        <Array as="points">
                            <mxPoint x="560" y="200"/>
                            <mxPoint x="560" y="258"/>
                        </Array>
                    </mxGeometry>
                </mxCell>
                <mxCell id="10" value="" style="rounded=0;whiteSpace=wrap;html=1;fillColor=#000000;" vertex="1" parent="1">
                    <mxGeometry x="489" y="120" width="22.5" height="550" as="geometry"/>
                </mxCell>
                <mxCell id="12" value="&lt;font style=&quot;font-size: 24px;&quot;&gt;SYSTEM&lt;/font&gt;" style="rounded=0;whiteSpace=wrap;html=1;fillColor=#000000;" vertex="1" parent="1">
                    <mxGeometry x="440" y="40" width="120" height="60" as="geometry"/>
                </mxCell>
                <mxCell id="13" value="&lt;font style=&quot;font-size: 18px;&quot;&gt;INTERFACE&lt;/font&gt;" style="rounded=0;whiteSpace=wrap;html=1;fillColor=#000000;" vertex="1" parent="1">
                    <mxGeometry x="841.25" y="40" width="120" height="60" as="geometry"/>
                </mxCell>
                <mxCell id="16" value="1. Demande d'auth" style="text;html=1;align=center;verticalAlign=middle;resizable=0;points=[];autosize=1;strokeColor=none;fillColor=none;fontSize=18;" vertex="1" parent="1">
                    <mxGeometry x="200" y="120" width="180" height="40" as="geometry"/>
                </mxCell>
                <mxCell id="17" value="1.1 Formulaire de sign-in" style="text;html=1;align=center;verticalAlign=middle;resizable=0;points=[];autosize=1;strokeColor=none;fillColor=none;fontSize=18;" vertex="1" parent="1">
                    <mxGeometry x="580" y="140" width="220" height="40" as="geometry"/>
                </mxCell>
                <mxCell id="19" value="2. Remplir le formulaire" style="text;html=1;align=center;verticalAlign=middle;resizable=0;points=[];autosize=1;strokeColor=none;fillColor=none;fontSize=18;" vertex="1" parent="1">
                    <mxGeometry x="185" y="200" width="210" height="40" as="geometry"/>
                </mxCell>
                <mxCell id="23" style="edgeStyle=none;html=1;fontSize=18;dashed=1;" edge="1" parent="1">
                    <mxGeometry relative="1" as="geometry">
                        <mxPoint x="880" y="280" as="sourcePoint"/>
                        <mxPoint x="120" y="280" as="targetPoint"/>
                    </mxGeometry>
                </mxCell>
                <mxCell id="45" style="edgeStyle=orthogonalEdgeStyle;html=1;exitX=1;exitY=0.25;exitDx=0;exitDy=0;entryX=-0.087;entryY=0.28;entryDx=0;entryDy=0;entryPerimeter=0;fontSize=18;" edge="1" parent="1" source="21" target="9">
                    <mxGeometry relative="1" as="geometry"/>
                </mxCell>
                <mxCell id="46" style="edgeStyle=orthogonalEdgeStyle;html=1;exitX=1;exitY=0.75;exitDx=0;exitDy=0;fontSize=18;" edge="1" parent="1" source="21">
                    <mxGeometry relative="1" as="geometry">
                        <mxPoint x="890" y="324.68421052631584" as="targetPoint"/>
                    </mxGeometry>
                </mxCell>
                <mxCell id="21" value="" style="rounded=0;whiteSpace=wrap;html=1;fontSize=18;fillColor=#000000;" vertex="1" parent="1">
                    <mxGeometry x="511.5" y="250" width="10" height="100" as="geometry"/>
                </mxCell>
                <mxCell id="22" value="2.1 varifie" style="text;html=1;align=center;verticalAlign=middle;resizable=0;points=[];autosize=1;strokeColor=none;fillColor=none;fontSize=18;" vertex="1" parent="1">
                    <mxGeometry x="560" y="200" width="100" height="40" as="geometry"/>
                </mxCell>
                <mxCell id="24" value="2.1.2 Message error" style="text;html=1;align=center;verticalAlign=middle;resizable=0;points=[];autosize=1;strokeColor=none;fillColor=none;fontSize=18;" vertex="1" parent="1">
                    <mxGeometry x="200" y="240" width="180" height="40" as="geometry"/>
                </mxCell>
                <mxCell id="28" style="edgeStyle=none;html=1;entryX=1.217;entryY=0.39;entryDx=0;entryDy=0;entryPerimeter=0;fontSize=18;dashed=1;exitX=0;exitY=0.382;exitDx=0;exitDy=0;exitPerimeter=0;" edge="1" parent="1" source="9" target="7">
                    <mxGeometry relative="1" as="geometry">
                        <mxPoint x="500" y="300" as="sourcePoint"/>
                        <mxPoint x="124.15250000000003" y="284.54999999999984" as="targetPoint"/>
                    </mxGeometry>
                </mxCell>
                <mxCell id="29" value="2.1.3 info success" style="text;html=1;align=center;verticalAlign=middle;resizable=0;points=[];autosize=1;strokeColor=none;fillColor=none;fontSize=18;" vertex="1" parent="1">
                    <mxGeometry x="205" y="300" width="170" height="40" as="geometry"/>
                </mxCell>
                <mxCell id="30" style="edgeStyle=orthogonalEdgeStyle;html=1;exitX=1.27;exitY=0.065;exitDx=0;exitDy=0;fontSize=18;exitPerimeter=0;entryX=-0.082;entryY=0.064;entryDx=0;entryDy=0;entryPerimeter=0;" edge="1" parent="1">
                    <mxGeometry relative="1" as="geometry">
                        <mxPoint x="114.99500000000005" y="380.55" as="sourcePoint"/>
                        <mxPoint x="484.825" y="380.00000000000006" as="targetPoint"/>
                        <Array as="points">
                            <mxPoint x="300" y="381"/>
                            <mxPoint x="485" y="380"/>
                        </Array>
                    </mxGeometry>
                </mxCell>
                <mxCell id="31" value="3. Demande list d'hotels" style="text;html=1;align=center;verticalAlign=middle;resizable=0;points=[];autosize=1;strokeColor=none;fillColor=none;fontSize=18;" vertex="1" parent="1">
                    <mxGeometry x="180" y="350" width="220" height="40" as="geometry"/>
                </mxCell>
                <mxCell id="33" value="3.1 Affichage list d'hotels" style="text;html=1;align=center;verticalAlign=middle;resizable=0;points=[];autosize=1;strokeColor=none;fillColor=none;fontSize=18;" vertex="1" parent="1">
                    <mxGeometry x="621.25" y="360" width="220" height="40" as="geometry"/>
                </mxCell>
                <mxCell id="34" style="edgeStyle=orthogonalEdgeStyle;html=1;exitX=1.27;exitY=0.065;exitDx=0;exitDy=0;fontSize=18;exitPerimeter=0;entryX=-0.082;entryY=0.064;entryDx=0;entryDy=0;entryPerimeter=0;" edge="1" parent="1">
                    <mxGeometry relative="1" as="geometry">
                        <mxPoint x="119.17500000000013" y="440.54999999999995" as="sourcePoint"/>
                        <mxPoint x="489.00500000000005" y="440.0000000000001" as="targetPoint"/>
                        <Array as="points">
                            <mxPoint x="304.18" y="441"/>
                            <mxPoint x="489.18" y="440"/>
                        </Array>
                    </mxGeometry>
                </mxCell>
                <mxCell id="35" value="4. Clicker sur un certain hotel" style="text;html=1;align=center;verticalAlign=middle;resizable=0;points=[];autosize=1;strokeColor=none;fillColor=none;fontSize=18;" vertex="1" parent="1">
                    <mxGeometry x="160" y="400" width="260" height="40" as="geometry"/>
                </mxCell>
                <mxCell id="36" style="edgeStyle=orthogonalEdgeStyle;html=1;entryX=1;entryY=0.5;entryDx=0;entryDy=0;fontSize=18;dashed=1;" edge="1" parent="1">
                    <mxGeometry relative="1" as="geometry">
                        <mxPoint x="893.75" y="450" as="sourcePoint"/>
                        <mxPoint x="115" y="450" as="targetPoint"/>
                    </mxGeometry>
                </mxCell>
                <mxCell id="37" value="4.1 Clicker sur un certain hotel" style="text;html=1;align=center;verticalAlign=middle;resizable=0;points=[];autosize=1;strokeColor=none;fillColor=none;fontSize=18;" vertex="1" parent="1">
                    <mxGeometry x="596.25" y="410" width="270" height="40" as="geometry"/>
                </mxCell>
                <mxCell id="41" value="2.1.1 Affichage message error" style="text;html=1;align=center;verticalAlign=middle;resizable=0;points=[];autosize=1;strokeColor=none;fillColor=none;fontSize=18;" vertex="1" parent="1">
                    <mxGeometry x="580" y="230" width="260" height="40" as="geometry"/>
                </mxCell>
                <mxCell id="43" value="2.1.2 Affichage success" style="text;html=1;align=center;verticalAlign=middle;resizable=0;points=[];autosize=1;strokeColor=none;fillColor=none;fontSize=18;" vertex="1" parent="1">
                    <mxGeometry x="605" y="290" width="210" height="40" as="geometry"/>
                </mxCell>
                <mxCell id="47" style="edgeStyle=orthogonalEdgeStyle;html=1;exitX=1.27;exitY=0.065;exitDx=0;exitDy=0;fontSize=18;exitPerimeter=0;entryX=-0.082;entryY=0.064;entryDx=0;entryDy=0;entryPerimeter=0;" edge="1" parent="1">
                    <mxGeometry relative="1" as="geometry">
                        <mxPoint x="119.17500000000018" y="490.54999999999995" as="sourcePoint"/>
                        <mxPoint x="489.0050000000001" y="490" as="targetPoint"/>
                        <Array as="points">
                            <mxPoint x="304.18" y="491"/>
                            <mxPoint x="489.18" y="490"/>
                        </Array>
                    </mxGeometry>
                </mxCell>
                <mxCell id="48" value="5. Reserver une chambre" style="text;html=1;align=center;verticalAlign=middle;resizable=0;points=[];autosize=1;strokeColor=none;fillColor=none;fontSize=18;" vertex="1" parent="1">
                    <mxGeometry x="175" y="450" width="230" height="40" as="geometry"/>
                </mxCell>
                <mxCell id="49" value="" style="rounded=0;whiteSpace=wrap;html=1;fontSize=18;fillColor=#000000;" vertex="1" parent="1">
                    <mxGeometry x="511.5" y="490" width="10" height="140" as="geometry"/>
                </mxCell>
                <mxCell id="50" style="edgeStyle=none;html=1;fontSize=18;" edge="1" parent="1">
                    <mxGeometry relative="1" as="geometry">
                        <mxPoint x="521.5" y="550.0000000000001" as="targetPoint"/>
                        <mxPoint x="511.5" y="490.0000000000001" as="sourcePoint"/>
                        <Array as="points">
                            <mxPoint x="551.5" y="490"/>
                            <mxPoint x="551.5" y="548"/>
                        </Array>
                    </mxGeometry>
                </mxCell>
                <mxCell id="51" value="5.1 varifie" style="text;html=1;align=center;verticalAlign=middle;resizable=0;points=[];autosize=1;strokeColor=none;fillColor=none;fontSize=18;" vertex="1" parent="1">
                    <mxGeometry x="550" y="482.96" width="100" height="40" as="geometry"/>
                </mxCell>
                <mxCell id="52" style="edgeStyle=orthogonalEdgeStyle;html=1;exitX=1;exitY=0.25;exitDx=0;exitDy=0;entryX=-0.087;entryY=0.28;entryDx=0;entryDy=0;entryPerimeter=0;fontSize=18;" edge="1" parent="1">
                    <mxGeometry relative="1" as="geometry">
                        <mxPoint x="521.5" y="557.96" as="sourcePoint"/>
                        <mxPoint x="888.0425" y="556.9599999999998" as="targetPoint"/>
                        <Array as="points">
                            <mxPoint x="705" y="558"/>
                            <mxPoint x="888" y="557"/>
                        </Array>
                    </mxGeometry>
                </mxCell>
                <mxCell id="53" value="5.3 Message error" style="text;html=1;align=center;verticalAlign=middle;resizable=0;points=[];autosize=1;strokeColor=none;fillColor=none;fontSize=18;" vertex="1" parent="1">
                    <mxGeometry x="200" y="540" width="170" height="40" as="geometry"/>
                </mxCell>
                <mxCell id="54" value="5.2 Auth required" style="text;html=1;align=center;verticalAlign=middle;resizable=0;points=[];autosize=1;strokeColor=none;fillColor=none;fontSize=18;" vertex="1" parent="1">
                    <mxGeometry x="630" y="512.96" width="160" height="40" as="geometry"/>
                </mxCell>
                <mxCell id="55" style="edgeStyle=none;html=1;exitX=-0.03;exitY=0.109;exitDx=0;exitDy=0;entryX=1.093;entryY=0.109;entryDx=0;entryDy=0;fontSize=18;entryPerimeter=0;exitPerimeter=0;dashed=1;" edge="1" parent="1">
                    <mxGeometry relative="1" as="geometry">
                        <mxPoint x="890.005" y="570" as="sourcePoint"/>
                        <mxPoint x="114.0225000000001" y="570" as="targetPoint"/>
                    </mxGeometry>
                </mxCell>
                <mxCell id="56" style="edgeStyle=orthogonalEdgeStyle;html=1;exitX=1;exitY=0.25;exitDx=0;exitDy=0;entryX=-0.087;entryY=0.28;entryDx=0;entryDy=0;entryPerimeter=0;fontSize=18;" edge="1" parent="1">
                    <mxGeometry relative="1" as="geometry">
                        <mxPoint x="523.46" y="601" as="sourcePoint"/>
                        <mxPoint x="890.0025" y="599.9999999999998" as="targetPoint"/>
                        <Array as="points">
                            <mxPoint x="706.96" y="601.04"/>
                            <mxPoint x="889.96" y="600.04"/>
                        </Array>
                    </mxGeometry>
                </mxCell>
                <mxCell id="57" value="5.4 Already authenticated" style="text;html=1;align=center;verticalAlign=middle;resizable=0;points=[];autosize=1;strokeColor=none;fillColor=none;fontSize=18;" vertex="1" parent="1">
                    <mxGeometry x="595" y="570" width="230" height="40" as="geometry"/>
                </mxCell>
                <mxCell id="59" style="edgeStyle=none;html=1;entryX=1.217;entryY=0.39;entryDx=0;entryDy=0;entryPerimeter=0;fontSize=18;dashed=1;exitX=0;exitY=0.382;exitDx=0;exitDy=0;exitPerimeter=0;" edge="1" parent="1">
                    <mxGeometry relative="1" as="geometry">
                        <mxPoint x="890" y="610.1" as="sourcePoint"/>
                        <mxPoint x="116.13250000000005" y="614.5" as="targetPoint"/>
                    </mxGeometry>
                </mxCell>
                <mxCell id="60" value="&amp;nbsp;5.5 Reserved room" style="text;html=1;align=center;verticalAlign=middle;resizable=0;points=[];autosize=1;strokeColor=none;fillColor=none;fontSize=18;" vertex="1" parent="1">
                    <mxGeometry x="200" y="580" width="180" height="40" as="geometry"/>
                </mxCell>
            </root>
        </mxGraphModel>
    </diagram>
</mxfile>